<?xml version="1.0" standalone="no"?>
<!DOCTYPE svg PUBLIC "-//W3C//DTD SVG 20010904//EN"
 "http://www.w3.org/TR/2001/REC-SVG-20010904/DTD/svg10.dtd">
<svg version="1.0" xmlns="http://www.w3.org/2000/svg"
 width="315.000000pt" height="180.000000pt" viewBox="0 0 315.000000 180.000000"
 preserveAspectRatio="xMidYMid meet">

<g transform="translate(0.000000,180.000000) scale(0.100000,-0.100000)"
fill="#000000" stroke="none">
<path d="M363 1766 c-92 -30 -159 -73 -222 -142 -156 -170 -170 -411 -37 -599
78 -108 156 -164 428 -306 215 -113 234 -125 297 -183 140 -131 115 -325 -53
-405 -226 -110 -516 29 -645 309 -19 41 -42 104 -51 140 -15 58 -20 65 -44 68
l-26 3 0 -325 0 -326 24 0 c17 0 31 10 43 31 24 41 72 69 117 69 20 0 76 -15
124 -34 173 -66 300 -81 450 -50 288 58 479 309 442 579 -13 93 -66 200 -134
269 -70 73 -204 159 -399 257 -204 103 -276 149 -326 206 -49 55 -65 100 -59
165 7 63 47 122 113 163 46 29 53 30 159 30 101 0 117 -3 171 -28 153 -72 268
-214 306 -379 13 -54 15 -58 43 -58 l29 0 -6 152 c-4 83 -7 211 -7 285 l0 133
-24 0 c-20 0 -25 -7 -35 -45 -20 -78 -60 -83 -196 -25 -133 56 -193 70 -310
70 -77 -1 -117 -6 -172 -24z"/>
<path d="M2315 1771 c-33 -9 -84 -30 -113 -46 -65 -35 -170 -145 -201 -209
-91 -188 -59 -389 88 -548 69 -76 175 -145 386 -254 193 -100 268 -147 313
-198 93 -106 95 -226 6 -325 -137 -152 -404 -126 -592 57 -83 81 -139 177
-178 308 -25 83 -31 94 -51 94 l-23 0 0 -325 0 -325 25 0 c17 0 29 9 40 30 21
40 71 70 116 70 19 0 82 -18 140 -39 132 -50 218 -65 334 -58 170 10 300 70
411 189 94 100 134 201 134 333 -1 135 -39 231 -133 331 -79 85 -178 149 -431
281 -287 148 -356 212 -356 332 0 91 59 170 154 206 35 13 66 16 139 13 82 -3
103 -8 163 -38 138 -67 258 -221 294 -377 11 -48 15 -53 39 -53 l27 0 -3 183
c-2 100 -6 228 -9 285 -5 91 -8 102 -24 102 -13 0 -22 -11 -29 -36 -24 -86
-68 -93 -199 -34 -48 21 -114 46 -147 55 -80 20 -242 19 -320 -4z"/>
<path d="M1520 890 l0 -50 -70 0 -70 0 0 -55 0 -55 70 0 70 0 0 -50 0 -50 -95
0 -95 0 0 -55 0 -55 95 0 95 0 0 -240 0 -240 55 0 55 0 0 240 0 240 95 0 95 0
0 55 0 55 -95 0 -95 0 0 50 0 50 70 0 70 0 0 55 0 55 -70 0 -70 0 0 50 0 50
-55 0 -55 0 0 -50z"/>
</g>
</svg>
