<?xml version="1.0" standalone="no"?>
<!DOCTYPE svg PUBLIC "-//W3C//DTD SVG 20010904//EN"
 "http://www.w3.org/TR/2001/REC-SVG-20010904/DTD/svg10.dtd">
<svg version="1.0" xmlns="http://www.w3.org/2000/svg"
 width="1000.000000pt" height="1600.000000pt" viewBox="0 0 1000.000000 1600.000000"
 preserveAspectRatio="xMidYMid meet">

<g transform="translate(0.000000,1600.000000) scale(0.100000,-0.100000)"
fill="#000000" stroke="none">
<path d="M7200 15609 c-296 -44 -478 -104 -707 -230 -199 -110 -375 -254 -523
-429 -30 -36 -57 -67 -60 -70 -3 -3 -28 -36 -55 -75 -152 -214 -250 -429 -308
-675 -41 -175 -51 -265 -51 -460 1 -403 73 -653 314 -1085 101 -182 246 -354
405 -484 66 -53 88 -69 190 -133 89 -56 320 -156 332 -144 5 4 -48 79 -67 96
-26 23 -139 218 -199 343 -122 252 -159 391 -181 676 -27 338 57 716 233 1051
46 86 161 262 220 335 57 70 271 285 310 312 18 13 42 31 53 41 92 86 395 248
569 304 282 91 566 117 900 83 140 -14 179 -20 330 -49 44 -9 84 -16 89 -16
14 0 -14 29 -101 105 -296 260 -716 441 -1170 505 -84 12 -443 11 -523 -1z"/>
<path d="M4820 15535 c-28 -52 -38 -64 -55 -60 -11 2 -38 7 -60 10 -22 3 -49
9 -60 12 -13 3 1 -17 38 -54 l57 -59 -35 -64 c-19 -36 -35 -68 -35 -72 0 -3
30 9 67 28 l68 34 59 -58 c49 -48 58 -53 53 -32 -4 14 -9 50 -13 80 l-6 55 71
34 c39 19 69 36 68 38 -2 1 -37 8 -79 14 l-76 11 -7 62 c-9 91 -16 94 -55 21z"/>
<path d="M9440 15476 c0 -82 6 -75 -95 -107 -22 -7 -43 -16 -47 -19 -4 -3 27
-16 69 -29 l75 -24 -7 -80 c-7 -88 -5 -89 45 -17 47 67 45 67 117 41 36 -12
67 -20 70 -17 3 2 -6 20 -20 38 -63 85 -63 78 -12 147 32 44 41 61 28 57 -108
-31 -136 -37 -142 -29 -3 5 -21 33 -40 61 -18 29 -35 52 -37 52 -2 0 -4 -33
-4 -74z"/>
<path d="M2789 15343 c-13 -16 -35 -42 -47 -60 l-23 -32 -66 25 c-36 14 -68
23 -70 20 -3 -2 13 -31 35 -62 l39 -58 -50 -64 c-36 -46 -45 -63 -31 -59 107
32 137 38 143 30 3 -5 22 -34 41 -64 26 -40 36 -49 37 -34 13 133 12 131 46
142 18 6 47 14 64 18 53 11 47 21 -25 47 l-67 23 3 78 c1 42 1 77 -1 77 -2 0
-15 -12 -28 -27z"/>
<path d="M62 14725 c0 -16 2 -22 5 -12 2 9 2 23 0 30 -3 6 -5 -1 -5 -18z"/>
<path d="M4269 14495 c-35 -59 -68 -109 -75 -112 -6 -2 -67 10 -135 26 -67 17
-124 30 -125 28 -2 -1 35 -47 82 -102 46 -54 84 -102 84 -107 0 -4 -31 -60
-69 -123 -68 -113 -69 -114 -38 -101 18 7 46 19 62 26 179 76 161 71 182 46
10 -12 49 -58 87 -104 38 -45 71 -80 73 -78 3 2 0 44 -6 93 -6 48 -11 109 -11
134 l0 45 120 48 c66 26 120 51 120 54 0 4 -57 21 -127 38 l-128 30 -11 127
c-6 71 -14 130 -17 133 -3 3 -34 -43 -68 -101z"/>
<path d="M1447 14488 c-4 -13 -7 -46 -7 -75 0 -59 -4 -62 -87 -84 -29 -7 -53
-15 -53 -19 0 -3 21 -12 48 -19 95 -28 92 -25 92 -114 l0 -81 46 62 c25 34 52
62 60 62 7 0 38 -9 69 -21 50 -19 85 -19 60 -1 -13 9 -75 98 -75 108 0 4 19
31 41 61 23 29 40 55 37 58 -2 2 -32 -5 -67 -15 -34 -11 -66 -20 -71 -20 -4 0
-25 27 -47 61 -37 55 -41 58 -46 37z"/>
<path d="M2650 14270 l0 -100 -145 0 -145 0 0 -110 0 -110 145 0 145 0 0 -105
0 -105 -200 0 -200 0 0 -110 0 -110 200 0 200 0 0 -490 0 -490 110 0 110 0 0
490 0 490 205 0 205 0 0 110 0 110 -205 0 -205 0 0 105 0 105 145 0 145 0 0
110 0 110 -145 0 -145 0 0 100 0 100 -110 0 -110 0 0 -100z"/>
<path d="M8580 14098 c0 -125 -4 -199 -10 -203 -9 -6 -207 -65 -322 -97 -21
-6 -38 -14 -38 -19 0 -5 2 -9 4 -9 1 0 68 -23 147 -51 79 -28 158 -55 175 -60
l32 -9 -6 -195 c-3 -107 -3 -195 0 -195 3 0 32 35 64 78 32 42 63 82 69 88 5
6 30 39 55 73 34 46 50 60 65 57 23 -5 232 -77 305 -106 59 -23 65 -24 49 -7
-31 34 -208 304 -209 317 0 12 116 169 185 252 27 32 50 72 37 64 -7 -4 -88
-29 -180 -56 -92 -26 -172 -49 -179 -51 -11 -4 -56 55 -175 231 -28 41 -55 79
-59 85 -5 5 -9 -76 -9 -187z"/>
<path d="M1093 13204 c3 -11 20 -68 36 -129 17 -60 35 -123 41 -140 5 -16 16
-55 24 -85 8 -30 17 -62 21 -71 5 -13 -13 -30 -77 -71 -331 -217 -311 -202
-283 -210 14 -3 120 -10 235 -14 l208 -7 42 -151 c23 -83 46 -162 50 -176 5
-14 14 -49 21 -78 7 -29 16 -49 20 -45 3 5 18 40 32 78 14 39 39 108 57 155
18 47 41 112 52 144 l21 59 191 -7 c105 -4 214 -9 241 -13 49 -5 50 -5 30 13
-11 11 -40 35 -65 54 -25 19 -52 40 -60 47 -100 80 -199 158 -214 168 -17 13
-17 16 9 87 15 40 44 120 65 178 21 58 45 123 54 144 9 22 14 41 12 43 -2 3
-86 -50 -186 -117 -100 -67 -188 -124 -195 -127 -13 -4 -53 24 -185 130 -8 7
-35 28 -60 47 -25 19 -47 37 -50 40 -3 3 -25 20 -49 39 -33 26 -42 29 -38 15z"/>
<path d="M7480 13005 l0 -180 -165 -55 c-91 -30 -161 -57 -157 -60 4 -4 72
-26 152 -50 154 -46 180 -56 179 -68 -1 -4 -1 -83 0 -176 l1 -169 60 84 c33
46 80 112 105 146 l45 61 42 -13 c48 -15 265 -84 287 -91 10 -3 11 -1 4 8 -6
7 -41 54 -77 103 -37 50 -73 98 -81 107 -45 55 -48 66 -29 95 9 15 21 32 26
38 10 11 141 196 152 213 8 13 -1 11 -186 -52 -75 -25 -139 -46 -142 -46 -2 0
-48 60 -102 133 -54 72 -101 136 -106 142 -4 5 -8 -72 -8 -170z"/>
<path d="M4267 12984 c-3 -16 -11 -59 -17 -96 l-12 -67 -50 -10 c-27 -6 -61
-11 -76 -12 -70 -2 -65 -14 20 -58 46 -24 84 -45 86 -46 2 -2 -2 -22 -7 -46
-21 -95 -22 -109 -3 -109 9 0 41 23 70 51 36 34 57 47 65 41 16 -12 145 -82
152 -82 3 0 -13 36 -35 80 -22 44 -40 84 -40 89 0 5 30 39 68 76 l67 67 -55
-8 c-30 -4 -75 -8 -100 -8 l-45 -1 -41 84 c-39 79 -42 83 -47 55z"/>
<path d="M8976 12435 c-27 -72 -29 -73 -60 -70 -17 2 -53 7 -81 10 l-50 5 40
-34 c22 -19 51 -42 63 -53 l24 -19 -27 -67 c-15 -37 -26 -70 -23 -72 2 -3 31
13 63 34 65 43 63 43 128 -16 52 -47 56 -47 46 -5 -30 126 -33 110 19 142 26
16 56 36 67 44 19 14 18 15 -20 16 -22 1 -58 4 -80 8 -40 7 -40 8 -55 74 -8
37 -18 69 -20 72 -3 3 -18 -28 -34 -69z"/>
<path d="M4149 12343 c-13 -16 -35 -42 -47 -60 l-23 -32 -66 25 c-36 14 -68
23 -70 20 -3 -2 13 -31 35 -62 l39 -58 -50 -64 c-36 -46 -45 -63 -31 -59 107
32 137 38 143 30 3 -5 22 -34 41 -64 26 -40 36 -49 37 -34 13 133 12 131 46
142 18 6 47 14 64 18 53 11 47 21 -25 47 l-67 23 3 78 c1 42 1 77 -1 77 -2 0
-15 -12 -28 -27z"/>
<path d="M5192 12218 c-7 -24 -40 -127 -74 -230 l-60 -188 -234 -2 -234 -3
111 -80 c61 -44 145 -104 186 -133 88 -63 86 -46 25 -232 -82 -253 -90 -280
-78 -273 11 6 147 105 295 214 l76 56 65 -45 c36 -26 90 -65 120 -87 89 -68
200 -145 200 -141 0 5 -75 239 -116 364 -13 40 -24 76 -24 81 0 5 16 19 35 31
20 12 41 27 48 34 6 6 59 45 117 86 58 41 112 81 120 87 8 7 24 19 35 27 18
14 -4 15 -213 16 -231 0 -232 0 -242 23 -5 12 -39 115 -76 230 -36 114 -67
207 -68 207 -1 0 -7 -19 -14 -42z"/>
<path d="M2970 11600 c-25 -29 -49 -59 -53 -66 -12 -21 -36 -17 -117 16 -40
17 -75 28 -77 26 -3 -3 13 -31 35 -63 62 -92 64 -97 44 -119 -35 -39 -102
-122 -102 -127 0 -2 41 7 92 20 106 28 93 35 156 -74 20 -35 40 -63 44 -63 4
0 8 42 8 94 l0 94 38 12 c20 6 55 16 77 21 91 25 93 22 -67 81 -27 10 -27 12
-30 106 l-3 95 -45 -53z"/>
<path d="M9080 11476 c0 -82 6 -75 -95 -107 -22 -7 -43 -16 -47 -19 -4 -3 27
-16 69 -29 l75 -24 -7 -80 c-7 -88 -5 -89 45 -17 47 67 45 67 117 41 36 -12
67 -20 70 -17 3 2 -6 20 -20 38 -63 85 -63 78 -12 147 32 44 41 61 28 57 -108
-31 -136 -37 -142 -29 -3 5 -21 33 -40 61 -18 29 -35 52 -37 52 -2 0 -4 -33
-4 -74z"/>
<path d="M1728 11404 l-3 -79 -75 -24 c-42 -14 -68 -27 -60 -30 8 -3 42 -15
74 -26 l60 -20 -3 -72 c-1 -41 2 -73 7 -73 5 0 28 25 51 55 23 30 43 55 45 55
1 0 35 -11 74 -24 l72 -25 -17 27 c-10 15 -20 29 -23 32 -3 3 -16 20 -29 38
l-22 32 22 33 c13 17 33 45 46 61 13 16 22 30 20 32 -2 2 -30 -5 -63 -16 -32
-11 -66 -20 -74 -20 -8 0 -34 28 -57 61 l-42 62 -3 -79z"/>
<path d="M6883 11397 c0 -6 -1 -42 -1 -79 l-2 -66 -70 -22 c-38 -12 -70 -23
-70 -25 0 -2 31 -14 70 -26 l69 -23 3 -79 3 -80 45 61 c24 34 47 62 50 62 3 0
30 -9 60 -20 30 -11 61 -20 68 -20 7 0 -4 25 -28 59 -40 60 -47 76 -32 83 4 2
24 26 44 55 l37 52 -51 -16 c-28 -8 -62 -19 -75 -24 -20 -7 -27 -2 -63 51 -42
62 -58 78 -57 57z"/>
<path d="M7626 10779 c-3 -34 -6 -122 -6 -195 l0 -133 -57 -15 c-32 -9 -87
-25 -123 -35 -36 -11 -93 -27 -127 -37 -35 -10 -63 -20 -63 -23 0 -3 33 -18
73 -33 39 -14 119 -43 175 -65 l104 -38 -1 -165 c-1 -91 -4 -181 -7 -200 l-5
-35 21 25 c12 14 26 32 33 40 18 23 190 245 193 248 1 2 37 -10 80 -27 44 -16
124 -46 179 -66 55 -20 104 -40 109 -43 12 -7 9 -2 -104 168 -53 80 -99 150
-103 157 -4 6 -1 17 6 25 40 42 218 280 213 285 -3 3 -36 -3 -73 -14 -38 -12
-102 -30 -143 -42 -41 -12 -89 -26 -106 -31 -43 -14 -39 -16 -81 48 -21 31
-41 62 -45 67 -5 6 -19 26 -31 45 -19 29 -94 138 -102 148 -1 1 -5 -25 -9 -59z"/>
<path d="M3449 10600 c-26 -44 -109 -182 -114 -188 -2 -2 -52 8 -111 23 -155
36 -154 36 -154 31 0 -3 6 -11 13 -18 6 -7 45 -52 85 -100 l73 -87 -70 -116
c-72 -120 -73 -125 -6 -95 11 5 58 25 105 45 70 29 87 33 95 22 9 -13 79 -95
147 -171 26 -30 26 -30 22 -6 -3 14 -8 77 -12 141 l-7 116 60 23 c33 13 89 37
125 54 l65 29 -130 32 c-85 21 -131 37 -133 46 -1 8 -8 70 -15 139 l-12 125
-26 -45z"/>
<path d="M1590 10500 l0 -100 -145 0 -145 0 0 -110 0 -110 145 0 145 0 0 -105
0 -105 -200 0 -200 0 0 -110 0 -110 200 0 200 0 0 -495 0 -495 110 0 110 0 0
495 0 495 205 0 205 0 0 110 0 110 -205 0 -205 0 0 105 0 105 145 0 145 0 0
110 0 110 -145 0 -145 0 0 100 0 100 -110 0 -110 0 0 -100z"/>
<path d="M4704 10255 c3 -49 10 -142 16 -205 5 -63 14 -169 19 -235 6 -66 13
-152 17 -190 l6 -70 -43 -18 c-24 -11 -57 -25 -74 -32 -16 -7 -86 -36 -155
-65 -69 -29 -181 -76 -250 -104 -69 -29 -147 -61 -173 -71 l-49 -18 94 -23
c51 -13 113 -28 138 -33 62 -15 368 -87 463 -110 43 -11 80 -21 82 -23 4 -4
21 -168 35 -353 6 -77 15 -184 21 -238 5 -54 9 -121 9 -149 0 -32 4 -48 9 -42
9 9 61 92 286 464 62 101 119 189 128 194 11 7 42 4 104 -12 48 -12 147 -35
218 -52 72 -16 164 -39 205 -50 139 -38 225 -57 233 -53 5 3 -122 163 -153
193 -3 3 -62 70 -130 150 -68 80 -127 147 -130 150 -3 3 -24 28 -48 56 l-42
52 139 228 c76 126 166 275 201 332 35 56 60 105 57 109 -4 3 -56 -15 -117
-41 -60 -25 -158 -66 -217 -91 -60 -24 -171 -71 -247 -103 l-140 -59 -30 36
c-17 20 -33 38 -36 41 -3 3 -30 34 -60 70 -30 36 -57 67 -60 70 -3 3 -75 86
-160 185 -84 99 -158 185 -163 190 -6 6 -7 -22 -3 -80z"/>
<path d="M9115 9186 c-6 -6 -26 -31 -45 -56 -19 -25 -37 -47 -40 -50 -3 -3
-21 -25 -40 -50 -19 -25 -37 -47 -40 -50 -3 -3 -19 -22 -35 -43 -33 -44 -30
-44 -152 2 -128 48 -246 91 -250 91 -2 0 5 -12 15 -27 11 -16 59 -88 107 -162
79 -121 86 -137 75 -155 -7 -12 -58 -77 -113 -146 -55 -69 -104 -130 -109
-137 -11 -14 -10 -14 230 53 130 36 146 38 157 19 5 -10 53 -83 105 -163 l95
-146 12 164 c6 91 11 179 12 197 1 29 5 33 44 44 23 6 53 15 67 19 14 4 63 18
110 30 47 13 102 28 123 35 l38 12 -128 48 c-70 26 -153 57 -183 68 -30 11
-56 20 -57 21 -1 1 2 89 7 196 5 107 8 195 7 196 -1 1 -7 -3 -12 -10z"/>
<path d="M826 9065 c-31 -41 -60 -75 -65 -75 -4 0 -45 14 -91 30 -46 17 -85
30 -87 30 -2 0 21 -36 51 -81 31 -45 53 -86 49 -92 -4 -7 -29 -40 -55 -74 -26
-34 -48 -64 -48 -67 0 -3 30 5 68 16 120 36 110 39 172 -48 l55 -77 5 98 5 99
82 25 c45 14 84 29 88 32 3 4 -35 20 -86 35 l-91 29 4 98 c3 53 4 97 3 97 -2
0 -28 -34 -59 -75z"/>
<path d="M7395 9027 c-5 -7 -30 -37 -54 -67 -25 -30 -48 -59 -51 -63 -4 -5
-47 8 -96 27 -48 19 -90 34 -92 32 -1 -2 20 -38 48 -79 27 -42 50 -79 50 -83
0 -3 -27 -39 -61 -80 -33 -41 -57 -74 -52 -74 4 0 47 11 95 24 l87 24 54 -83
54 -84 6 96 c3 52 7 96 9 99 5 4 115 35 151 41 15 3 27 8 27 12 0 3 -39 21
-86 40 l-87 34 6 98 c3 55 5 99 4 99 -1 -1 -6 -6 -12 -13z"/>
<path d="M2320 8992 c35 -114 70 -225 74 -231 3 -4 -39 -39 -92 -76 -143 -102
-144 -95 12 -95 l135 0 41 -130 c23 -71 43 -130 44 -130 2 0 22 58 46 130 l43
129 134 3 134 3 -83 61 c-46 34 -93 67 -105 75 -13 8 -23 18 -23 24 0 5 18 64
39 130 22 66 39 121 37 122 -4 4 -190 -130 -194 -139 -8 -18 -72 8 -102 42 -3
3 -37 28 -77 57 -67 48 -71 50 -63 25z"/>
<path d="M3930 8608 c4 -18 11 -53 14 -78 l6 -45 -65 -34 c-36 -19 -63 -36
-61 -39 3 -2 35 -7 72 -12 37 -5 70 -14 74 -20 4 -7 10 -35 13 -63 10 -77 21
-77 57 -2 27 57 35 66 53 61 12 -2 47 -8 77 -11 l55 -7 -52 52 c-29 28 -53 58
-53 65 0 8 8 29 18 47 10 18 23 45 30 61 l12 27 -64 -35 c-35 -19 -68 -35 -73
-35 -4 0 -32 23 -60 50 -29 28 -55 50 -57 50 -2 0 -1 -15 4 -32z"/>
<path d="M6200 8433 c0 -5 9 -37 20 -70 11 -33 26 -84 34 -114 8 -30 23 -83
34 -119 l19 -66 -81 -54 c-44 -30 -83 -57 -86 -60 -3 -3 -39 -28 -80 -55 l-74
-50 74 -6 c41 -4 125 -7 185 -8 61 -1 115 -5 121 -9 6 -4 21 -38 32 -77 12
-38 35 -115 52 -170 16 -56 30 -107 30 -115 0 -29 18 9 59 125 23 66 52 146
64 178 l22 58 115 -6 c63 -3 153 -8 200 -11 52 -3 81 -2 75 4 -5 5 -73 58
-150 117 -77 59 -144 112 -149 116 -8 7 62 223 106 328 10 24 17 46 14 48 -3
4 -122 -72 -136 -87 -3 -3 -46 -34 -97 -68 -84 -57 -94 -61 -110 -48 -30 25
-138 109 -173 136 -19 14 -45 34 -59 45 -56 44 -61 47 -61 38z"/>
<path d="M3374 7943 c-9 -15 -148 -193 -197 -253 -7 -8 -41 -52 -76 -97 -35
-46 -65 -83 -68 -83 -3 0 -84 29 -250 91 -29 10 -77 28 -105 38 -29 11 -84 31
-122 45 -38 15 -70 25 -73 22 -2 -2 68 -112 156 -245 89 -132 161 -243 161
-246 0 -6 -57 -82 -70 -95 -3 -3 -21 -25 -40 -50 -19 -25 -37 -47 -40 -50 -3
-3 -34 -43 -70 -90 -35 -47 -67 -87 -70 -90 -3 -3 -21 -25 -40 -49 l-34 -44
29 7 c32 8 512 144 532 151 7 2 83 -103 175 -240 89 -134 164 -242 166 -241 5
6 21 330 23 463 l1 123 42 10 c22 6 64 17 91 25 28 8 131 37 230 65 99 28 189
54 200 57 22 6 30 3 -190 83 -230 85 -347 129 -352 134 -3 2 0 95 6 206 13
236 14 370 3 370 -4 0 -12 -8 -18 -17z"/>
<path d="M4575 7598 c-3 -7 -8 -38 -13 -68 -8 -61 1 -55 -120 -77 l-44 -8 71
-35 c59 -29 71 -38 66 -55 -3 -11 -8 -45 -11 -75 l-6 -55 53 52 52 52 69 -35
c37 -19 68 -32 68 -29 0 2 -14 34 -32 70 l-32 65 54 56 c36 37 48 54 35 51
-11 -3 -46 -8 -77 -12 l-57 -6 -31 60 c-31 63 -37 70 -45 49z"/>
<path d="M1490 7563 c-111 -65 -279 -218 -342 -311 -17 -26 -34 -49 -38 -52
-3 -3 -25 -37 -48 -76 -125 -209 -195 -512 -172 -743 11 -104 23 -176 41 -236
44 -149 103 -279 173 -380 123 -179 305 -339 492 -434 75 -38 255 -98 338
-112 97 -17 332 -22 411 -9 303 50 510 156 721 365 95 94 214 247 214 276 0 4
-33 -7 -74 -26 -174 -79 -315 -108 -531 -108 -250 1 -413 43 -629 163 -125 69
-216 145 -351 294 -83 91 -170 247 -224 400 -50 142 -66 245 -66 416 0 113 5
179 19 245 21 101 66 236 102 308 14 26 21 47 17 47 -5 0 -28 -12 -53 -27z"/>
<path d="M7527 7553 c-4 -3 -7 -22 -7 -41 0 -20 -4 -63 -10 -96 -8 -55 -31
-237 -49 -386 -6 -50 -8 -55 -36 -62 -27 -6 -184 -37 -430 -83 -49 -10 -96
-20 -103 -24 -7 -4 29 -26 90 -55 57 -27 157 -75 223 -106 66 -31 139 -65 161
-75 39 -17 41 -20 38 -54 -3 -20 -18 -143 -34 -273 -17 -131 -30 -248 -30
-260 1 -22 2 -22 27 7 14 17 83 91 153 165 70 74 149 159 176 187 l49 53 75
-36 c72 -35 130 -62 263 -123 34 -16 91 -43 126 -60 36 -17 66 -29 69 -26 2 2
-7 23 -20 47 -14 24 -40 70 -58 103 -18 33 -43 78 -55 100 -22 40 -44 80 -112
204 l-35 63 43 46 c24 25 55 57 69 72 14 14 52 55 84 90 33 36 93 100 134 143
41 42 73 79 71 81 -2 2 -87 -13 -189 -33 -102 -21 -229 -46 -283 -56 -112 -20
-108 -22 -150 55 -72 133 -238 432 -242 438 -1 1 -5 -1 -8 -5z"/>
<path d="M9275 7220 c-22 -33 -47 -60 -55 -60 -8 0 -43 9 -78 19 l-63 20 24
-32 c13 -18 34 -46 47 -64 l23 -32 -25 -38 c-13 -21 -33 -50 -42 -65 l-18 -27
73 25 73 26 31 -38 c70 -88 64 -88 65 -3 l0 76 43 16 c23 8 52 18 65 22 36 11
26 20 -45 41 l-68 19 -5 78 -5 77 -40 -60z"/>
<path d="M5400 6880 l0 -100 -145 0 -145 0 0 -110 0 -110 145 0 145 0 0 -100
0 -100 -200 0 -200 0 0 -110 0 -110 200 0 200 0 0 -495 0 -495 110 0 110 0 0
495 0 495 200 0 200 0 0 110 0 110 -200 0 -200 0 0 100 0 100 145 0 145 0 0
110 0 110 -145 0 -145 0 0 100 0 100 -110 0 -110 0 0 -100z"/>
<path d="M6810 5563 c0 -5 7 -32 15 -59 24 -80 22 -87 -46 -131 l-61 -40 81
-7 c66 -6 81 -10 81 -24 0 -9 8 -43 18 -75 l17 -58 29 77 30 76 80 -7 80 -7
-60 48 c-32 26 -61 49 -63 50 -2 2 8 35 23 74 14 39 26 73 26 76 0 3 -27 -14
-60 -36 -65 -44 -79 -45 -120 -8 -59 53 -70 61 -70 51z"/>
<path d="M790 5450 c-19 -27 -41 -52 -48 -55 -7 -2 -41 6 -74 20 -34 14 -63
23 -66 21 -2 -3 15 -32 38 -65 l41 -61 -46 -56 c-25 -31 -44 -59 -41 -61 2 -3
29 2 59 11 30 9 62 16 71 16 8 0 35 -28 58 -62 l43 -63 5 79 5 78 40 13 c22 7
56 17 75 22 l35 9 -72 29 -73 28 0 74 c0 40 -3 73 -7 73 -5 0 -24 -23 -43 -50z"/>
<path d="M9144 5066 l-110 -84 -39 30 c-53 39 -185 129 -185 125 0 -1 18 -54
41 -117 23 -63 42 -122 43 -130 0 -8 -48 -52 -109 -98 l-110 -85 141 7 c131 6
142 5 147 -11 7 -25 63 -181 77 -218 l12 -30 15 50 c8 28 25 87 39 133 l25 82
134 0 c74 0 135 3 135 8 0 4 -42 35 -93 70 -51 34 -100 69 -110 76 -19 15 -14
38 53 249 5 15 8 27 7 27 -2 0 -52 -38 -113 -84z"/>
<path d="M3622 4907 c-23 -31 -47 -57 -52 -57 -5 0 -39 11 -75 24 -36 13 -65
21 -65 17 0 -3 18 -32 40 -64 23 -32 37 -63 34 -70 -4 -7 -25 -33 -46 -58 -21
-26 -38 -49 -38 -52 0 -2 30 4 67 14 37 11 72 19 78 19 5 -1 28 -29 50 -63
l40 -62 3 77 3 77 57 16 c31 9 66 19 77 22 14 4 1 13 -50 33 l-70 28 -5 78 -5
78 -43 -57z"/>
<path d="M2900 4658 c0 -88 1 -86 -93 -108 -31 -7 -55 -16 -51 -19 3 -3 33
-17 66 -31 l61 -25 -2 -79 -2 -78 29 33 c16 19 39 46 51 61 l23 26 69 -28 c38
-16 69 -26 69 -21 0 4 -16 31 -35 61 -19 30 -35 58 -35 62 0 3 20 31 46 62 49
60 45 65 -32 41 -70 -21 -77 -20 -102 28 -12 23 -31 53 -42 67 l-20 25 0 -77z"/>
<path d="M4189 4583 c-13 -16 -35 -42 -47 -60 l-23 -32 -66 25 c-36 14 -68 23
-70 20 -3 -2 13 -31 35 -62 l39 -58 -50 -64 c-36 -46 -45 -63 -31 -59 107 32
137 38 143 30 3 -5 22 -34 41 -64 26 -40 36 -49 37 -34 13 133 12 131 46 142
18 6 47 14 64 18 53 11 47 21 -25 47 l-67 23 3 78 c1 42 1 77 -1 77 -2 0 -15
-12 -28 -27z"/>
<path d="M7711 4434 c-25 -38 -66 -103 -93 -145 l-49 -76 -69 18 c-39 11 -103
28 -142 39 -40 11 -86 23 -103 27 l-30 6 29 -39 c17 -21 33 -41 36 -44 3 -3
21 -25 40 -50 19 -25 37 -47 40 -50 13 -12 70 -88 70 -94 0 -6 -73 -121 -151
-238 -21 -32 -37 -58 -36 -58 6 0 162 58 240 89 43 17 82 31 86 31 5 0 58 -61
117 -135 59 -74 109 -134 110 -132 1 1 -1 79 -6 172 -4 94 -5 173 -1 176 6 6
164 69 264 105 26 9 47 20 47 23 0 6 -196 62 -301 86 l-27 7 -7 150 c-4 83
-10 162 -14 175 -6 24 -10 20 -50 -43z"/>
<path d="M5715 4295 l-7 -95 -67 -19 c-36 -10 -79 -22 -96 -26 -32 -7 -29 -9
128 -67 27 -10 27 -11 27 -107 l0 -96 30 35 c17 19 40 50 53 67 12 18 28 35
35 38 7 2 47 -9 89 -26 41 -16 79 -29 84 -27 5 2 -8 28 -30 59 -67 97 -66 94
-29 142 18 23 43 53 55 67 42 45 34 48 -57 20 -98 -30 -99 -30 -154 55 -27 41
-50 75 -51 75 -2 0 -6 -43 -10 -95z"/>
<path d="M9295 3851 l-28 -71 -41 6 c-23 2 -59 7 -81 10 l-40 4 61 -55 62 -55
-28 -68 c-16 -36 -27 -69 -24 -71 2 -2 28 12 59 32 30 21 60 37 66 37 6 0 36
-21 67 -47 l55 -48 -7 35 c-19 87 -24 115 -19 123 2 4 29 22 60 39 60 34 57
47 -12 48 -75 1 -81 6 -95 73 -7 34 -16 66 -20 70 -4 5 -20 -23 -35 -62z"/>
<path d="M1420 3735 c-7 -8 -52 -52 -101 -96 l-89 -81 -52 30 c-122 68 -190
103 -185 95 2 -4 30 -61 62 -126 l57 -118 -104 -100 c-56 -55 -94 -98 -83 -95
27 7 224 36 246 36 13 0 34 -33 76 -120 32 -68 60 -115 64 -108 3 7 11 47 18
88 7 41 17 96 22 121 10 45 12 47 52 53 23 3 84 11 135 17 50 7 89 16 85 19
-5 4 -57 33 -118 64 -60 32 -111 59 -113 61 -3 2 6 57 31 203 7 39 12 72 11
72 -1 0 -7 -7 -14 -15z"/>
<path d="M2710 3620 l0 -100 -145 0 -145 0 0 -110 0 -110 145 0 145 0 0 -105
0 -105 -200 0 -200 0 0 -110 0 -110 200 0 200 0 0 -495 0 -495 110 0 110 0 0
495 0 495 205 0 205 0 0 110 0 110 -205 0 -205 0 0 105 0 105 145 0 145 0 0
110 0 110 -145 0 -145 0 0 100 0 100 -110 0 -110 0 0 -100z"/>
<path d="M8370 3633 c0 -4 15 -36 34 -72 18 -36 39 -84 46 -106 7 -22 16 -44
20 -50 13 -19 50 -180 60 -265 18 -147 7 -331 -25 -454 -33 -124 -38 -139 -85
-241 -57 -124 -146 -251 -245 -350 -101 -102 -116 -115 -203 -174 -123 -83
-295 -156 -457 -192 -94 -21 -430 -19 -524 4 -78 19 -225 68 -260 86 -30 16
-26 4 16 -59 109 -162 268 -300 469 -408 123 -66 304 -117 469 -133 415 -38
832 138 1098 464 168 206 260 435 286 714 13 126 7 212 -25 372 -21 104 -103
320 -134 351 -3 3 -14 21 -24 40 -66 120 -235 298 -368 388 -91 61 -148 94
-148 85z"/>
<path d="M5120 3367 c-14 -12 -72 -61 -130 -107 -58 -47 -111 -91 -118 -97 -7
-7 -16 -13 -19 -13 -7 0 -162 96 -260 162 -40 27 -73 46 -73 44 0 -3 4 -15 9
-28 77 -192 133 -339 130 -342 -16 -11 -219 -176 -240 -194 -14 -12 -34 -29
-45 -38 -17 -14 -5 -14 126 -8 80 5 169 8 199 9 l53 0 54 -135 c29 -74 54
-138 54 -141 0 -4 7 -24 16 -45 20 -47 19 -47 59 107 15 57 35 134 46 170 l19
66 169 7 c94 3 180 10 192 14 21 8 20 10 -17 32 -62 37 -284 182 -284 186 0 2
7 29 16 61 54 202 81 313 75 313 -3 0 -17 -10 -31 -23z"/>
<path d="M7269 2728 c-25 -35 -60 -84 -79 -110 -18 -27 -38 -48 -44 -48 -6 0
-54 14 -106 31 -153 50 -151 49 -143 35 16 -26 108 -152 120 -164 32 -33 33
-48 6 -88 -15 -21 -29 -41 -33 -44 -8 -7 -102 -140 -98 -140 2 0 57 18 123 40
66 22 125 40 131 40 7 0 47 -50 90 -111 l79 -111 3 141 c1 78 4 141 5 141 1 0
60 20 130 44 l129 43 -131 42 -130 42 -3 140 -3 139 -46 -62z"/>
<path d="M3768 1833 l-95 -95 -118 61 c-65 34 -120 60 -121 58 -2 -1 24 -57
56 -122 l60 -120 -98 -99 -97 -98 40 7 c22 4 65 11 95 15 30 5 73 11 96 15
l41 7 59 -120 c32 -67 61 -121 64 -122 3 0 12 39 19 88 7 48 17 108 23 134 9
47 10 47 56 53 75 11 215 35 218 38 2 2 -49 29 -112 61 -63 32 -117 62 -119
67 -3 4 0 38 5 76 6 37 15 95 20 128 5 32 8 60 7 62 -2 1 -46 -41 -99 -94z"/>
<path d="M1621 1705 c-24 -30 -47 -55 -52 -55 -5 0 -37 11 -71 25 -34 14 -62
24 -64 22 -1 -1 13 -28 32 -60 19 -32 34 -63 34 -68 0 -6 -20 -34 -45 -62 -24
-28 -43 -53 -41 -55 2 -2 31 4 64 12 33 9 65 16 71 16 6 0 29 -28 51 -61 43
-67 46 -65 53 23 2 32 6 61 9 64 3 3 39 13 79 22 l73 17 -72 28 c-40 16 -74
32 -76 35 -2 4 -1 40 3 80 4 39 4 72 1 72 -3 -1 -25 -25 -49 -55z"/>
</g>
</svg>
