<?xml version="1.0" standalone="no"?>
<!DOCTYPE svg PUBLIC "-//W3C//DTD SVG 20010904//EN"
 "http://www.w3.org/TR/2001/REC-SVG-20010904/DTD/svg10.dtd">
<svg version="1.0" xmlns="http://www.w3.org/2000/svg"
 width="1000.000000pt" height="240.000000pt" viewBox="0 0 1000.000000 240.000000"
 preserveAspectRatio="xMidYMid meet">

<g transform="translate(0.000000,240.000000) scale(0.100000,-0.100000)"
fill="#000000" stroke="none">
<path d="M503 1946 c-92 -30 -159 -73 -222 -142 -156 -170 -170 -411 -37 -599
78 -108 156 -164 428 -306 215 -113 234 -125 297 -183 140 -131 115 -325 -53
-405 -226 -110 -516 29 -645 309 -19 41 -42 104 -51 140 -15 58 -20 65 -44 68
l-26 3 0 -325 0 -326 24 0 c17 0 31 10 43 31 24 41 72 69 117 69 20 0 76 -15
124 -34 173 -66 300 -81 450 -50 288 58 479 309 442 579 -13 93 -66 200 -134
269 -70 73 -204 159 -399 257 -204 103 -276 149 -326 206 -49 55 -65 100 -59
165 7 63 47 122 113 163 46 29 53 30 159 30 101 0 117 -3 171 -28 153 -72 268
-214 306 -379 13 -54 15 -58 43 -58 l29 0 -6 152 c-4 83 -7 211 -7 285 l0 133
-24 0 c-20 0 -25 -7 -35 -45 -20 -78 -60 -83 -196 -25 -133 56 -193 70 -310
70 -77 -1 -117 -6 -172 -24z"/>
<path d="M2455 1951 c-33 -9 -84 -30 -113 -46 -65 -35 -170 -145 -201 -209
-91 -188 -59 -389 88 -548 69 -76 175 -145 386 -254 193 -100 268 -147 313
-198 93 -106 95 -226 6 -325 -137 -152 -404 -126 -592 57 -83 81 -139 177
-178 308 -25 83 -31 94 -51 94 l-23 0 0 -325 0 -325 25 0 c17 0 29 9 40 30 21
40 71 70 116 70 19 0 82 -18 140 -39 132 -50 218 -65 334 -58 170 10 300 70
411 189 94 100 134 201 134 333 -1 135 -39 231 -133 331 -79 85 -178 149 -431
281 -287 148 -356 212 -356 332 0 91 59 170 154 206 35 13 66 16 139 13 82 -3
103 -8 163 -38 138 -67 258 -221 294 -377 11 -48 15 -53 39 -53 l27 0 -3 183
c-2 100 -6 228 -9 285 -5 91 -8 102 -24 102 -13 0 -22 -11 -29 -36 -24 -86
-68 -93 -199 -34 -48 21 -114 46 -147 55 -80 20 -242 19 -320 -4z"/>
<path d="M7321 1683 c-59 -138 -163 -263 -273 -327 -31 -18 -48 -35 -48 -47 0
-17 8 -19 90 -19 l90 0 0 -397 c1 -441 7 -524 45 -589 58 -99 193 -130 303
-69 63 34 112 86 147 154 30 61 30 61 4 61 -13 0 -39 -19 -63 -44 -50 -54
-100 -68 -153 -42 -62 30 -63 37 -63 506 l0 420 135 0 135 0 0 45 0 45 -135 0
-135 0 -2 188 c-3 179 -4 187 -23 190 -17 2 -26 -11 -54 -75z"/>
<path d="M3793 1395 c-156 -43 -263 -154 -263 -271 0 -80 37 -123 108 -124 35
0 49 6 73 29 16 16 29 40 30 53 0 13 1 52 2 88 3 108 60 160 174 160 124 0
184 -61 204 -207 18 -133 20 -129 -101 -174 -170 -63 -357 -161 -422 -218 -81
-73 -113 -143 -112 -241 1 -98 30 -165 94 -223 55 -50 103 -67 187 -67 87 0
143 24 254 106 55 41 101 74 104 74 3 0 5 -15 5 -32 1 -50 34 -114 69 -132 36
-19 99 -21 138 -4 94 40 203 156 203 215 l0 35 -39 -35 c-61 -55 -88 -70 -115
-63 -13 3 -28 14 -32 23 -5 10 -11 196 -14 413 l-5 395 -28 58 c-32 65 -72 99
-149 129 -70 28 -286 35 -365 13z m337 -705 l0 -220 -75 -49 c-92 -60 -133
-75 -195 -69 -62 6 -102 36 -134 100 -31 63 -34 135 -7 193 23 51 103 126 172
161 44 22 227 103 237 104 1 0 2 -99 2 -220z"/>
<path d="M4722 1342 c-139 -57 -162 -70 -160 -87 3 -18 9 -20 68 -17 56 3 68
1 84 -17 29 -32 38 -168 34 -526 -3 -275 -6 -325 -20 -358 -19 -42 -64 -67
-123 -67 -31 0 -35 -3 -35 -25 l0 -25 290 0 290 0 0 24 c0 21 -5 24 -61 29
-38 3 -68 12 -81 24 -46 40 -48 61 -48 442 l0 359 53 47 c81 71 157 105 236
105 84 0 124 -23 154 -88 21 -45 22 -61 25 -424 3 -332 1 -381 -13 -408 -19
-37 -67 -60 -125 -60 -36 0 -40 -2 -40 -25 l0 -25 285 0 285 0 0 24 c0 20 -6
24 -49 29 -61 7 -87 23 -106 63 -12 26 -15 88 -15 351 0 464 -15 551 -112 650
-55 56 -116 76 -211 71 -100 -6 -168 -41 -279 -147 l-88 -83 0 116 0 116 -37
-1 c-22 0 -106 -29 -201 -67z"/>
<path d="M6320 1392 c-178 -60 -308 -189 -367 -366 -25 -74 -27 -94 -27 -236
0 -141 3 -162 27 -236 65 -197 215 -335 395 -363 232 -37 459 136 530 404 15
58 15 67 2 75 -8 5 -17 10 -20 10 -3 0 -23 -35 -45 -78 -74 -144 -161 -204
-303 -210 -77 -4 -88 -2 -147 27 -75 37 -122 88 -170 183 -51 102 -68 197 -63
336 7 172 53 274 157 347 40 28 48 30 136 30 90 0 95 -1 124 -29 33 -32 46
-63 56 -139 12 -88 84 -136 173 -116 77 17 106 103 63 188 -29 56 -122 136
-189 162 -80 31 -253 37 -332 11z"/>
<path d="M9343 1396 c-88 -28 -167 -99 -206 -185 -25 -55 -29 -184 -8 -245 28
-82 111 -148 316 -255 210 -109 265 -166 265 -271 0 -88 -49 -147 -141 -170
-159 -40 -343 96 -392 291 -11 42 -19 55 -36 57 -21 3 -21 2 -21 -207 0 -200
1 -211 19 -211 10 0 25 7 32 16 15 19 70 15 184 -11 232 -53 430 19 517 189
30 58 36 176 13 247 -14 42 -33 69 -84 119 -58 56 -89 76 -236 148 -93 46
-188 97 -211 114 -54 39 -84 93 -84 152 0 63 21 100 73 131 58 34 178 36 243
4 77 -37 142 -129 174 -248 9 -34 15 -41 35 -41 l25 0 0 195 0 195 -25 0 c-14
0 -29 -8 -35 -20 -8 -14 -21 -20 -45 -20 -20 0 -68 9 -107 20 -83 23 -201 25
-265 6z"/>
<path d="M7700 1355 c0 -22 4 -25 38 -26 59 0 104 -21 129 -58 23 -34 23 -37
23 -365 0 -182 5 -370 10 -416 26 -213 157 -329 339 -299 86 14 154 53 252
146 l89 85 0 -121 c0 -119 0 -121 23 -121 12 0 102 32 200 72 152 63 177 76
175 93 -2 15 -10 19 -28 18 -91 -8 -101 -7 -121 13 -33 33 -39 120 -39 577 l0
427 -200 0 -200 0 0 -23 c0 -20 7 -24 66 -34 75 -13 100 -31 114 -82 6 -21 10
-184 10 -388 l0 -352 -61 -51 c-70 -58 -120 -86 -180 -99 -96 -22 -194 30
-218 114 -7 26 -11 188 -11 478 l0 437 -205 0 -205 0 0 -25z"/>
<path d="M1660 1070 l0 -50 -70 0 -70 0 0 -55 0 -55 70 0 70 0 0 -50 0 -50
-95 0 -95 0 0 -55 0 -55 95 0 95 0 0 -240 0 -240 55 0 55 0 0 240 0 240 95 0
95 0 0 55 0 55 -95 0 -95 0 0 50 0 50 70 0 70 0 0 55 0 55 -70 0 -70 0 0 50 0
50 -55 0 -55 0 0 -50z"/>
</g>
</svg>
