<?xml version="1.0" standalone="no"?>
<!DOCTYPE svg PUBLIC "-//W3C//DTD SVG 20010904//EN"
 "http://www.w3.org/TR/2001/REC-SVG-20010904/DTD/svg10.dtd">
<svg version="1.0" xmlns="http://www.w3.org/2000/svg"
 width="1000.000000pt" height="1600.000000pt" viewBox="0 0 1000.000000 1600.000000"
 preserveAspectRatio="xMidYMid meet">

<g transform="translate(0.000000,1600.000000) scale(0.100000,-0.100000)"
fill="#000000" stroke="none">
<path d="M2521 15675 c-111 -185 -194 -315 -201 -315 -4 0 -20 4 -36 9 -33 11
-321 80 -376 91 -26 5 -36 4 -31 -4 6 -10 100 -123 113 -136 3 -3 30 -34 60
-70 30 -36 70 -81 87 -100 18 -19 33 -38 33 -41 0 -3 -30 -55 -66 -115 -37
-60 -80 -131 -96 -158 -16 -26 -40 -65 -53 -84 -14 -20 -25 -40 -25 -44 0 -6
66 20 335 131 l100 42 24 -28 c32 -38 56 -67 121 -143 30 -36 66 -78 80 -94
54 -64 90 -100 85 -86 -2 8 -9 83 -15 165 -6 83 -13 184 -16 225 l-6 75 43 17
c49 19 280 115 349 146 l45 19 -40 11 c-79 22 -375 92 -390 92 -26 0 -33 32
-45 200 -6 91 -14 192 -18 225 l-7 60 -54 -90z"/>
<path d="M5101 15082 c-14 -31 -35 -81 -49 -111 l-24 -53 -46 6 c-26 3 -78 8
-117 12 l-70 6 50 -45 c28 -24 67 -60 89 -79 l38 -34 -32 -75 c-18 -41 -38
-87 -46 -103 -8 -16 -14 -31 -14 -33 0 -5 128 66 162 89 27 19 54 24 60 11 5
-13 148 -136 152 -132 3 2 -7 51 -20 109 l-24 105 21 17 c11 10 54 36 96 59
90 50 86 56 -51 65 l-96 7 -9 36 c-5 20 -18 73 -28 118 l-18 82 -24 -57z"/>
<path d="M7782 14990 l3 -114 -75 -33 c-41 -18 -88 -38 -105 -44 -29 -11 -29
-12 45 -31 41 -10 93 -22 115 -26 39 -7 40 -9 47 -57 3 -28 7 -77 7 -111 1
-33 4 -64 7 -67 4 -4 34 39 66 94 47 78 64 99 76 94 10 -4 37 -11 62 -16 25
-5 63 -13 85 -19 48 -11 74 -13 60 -2 -13 9 -129 143 -139 159 -6 11 36 90
102 191 13 21 13 22 -4 16 -11 -4 -23 -10 -29 -14 -5 -4 -47 -21 -92 -39 l-83
-33 -42 48 c-24 27 -58 64 -76 84 l-33 35 3 -115z"/>
<path d="M682 15063 c-5 -16 -24 -64 -42 -107 l-33 -79 -116 6 -116 7 41 -38
c23 -20 62 -55 87 -77 l46 -40 -45 -104 c-24 -57 -43 -105 -42 -106 2 -1 47
24 101 57 l99 59 89 -76 c49 -42 89 -74 89 -71 0 4 -11 54 -25 112 -14 57 -23
109 -20 114 3 5 46 33 95 62 49 29 84 56 78 60 -7 3 -57 9 -114 13 l-102 7
-27 114 c-14 63 -28 114 -30 114 -2 0 -7 -12 -13 -27z"/>
<path d="M9137 14813 c-4 -3 -52 -97 -106 -209 l-99 -202 -44 8 c-23 5 -83 14
-133 20 -49 7 -112 16 -140 20 -27 5 -73 12 -102 15 l-52 7 171 -169 c150
-149 169 -172 159 -189 -6 -10 -54 -106 -106 -212 l-96 -194 143 75 c79 41
174 91 212 112 l69 36 80 -78 c44 -43 110 -107 147 -143 96 -94 122 -116 116
-100 -7 20 -76 426 -76 448 0 9 10 22 23 27 12 6 85 44 162 85 77 40 163 85
190 99 l50 26 -55 7 c-73 9 -183 24 -304 43 -55 8 -105 15 -111 15 -7 0 -15
19 -18 43 -7 55 -68 411 -71 415 -2 1 -6 -1 -9 -5z"/>
<path d="M3635 14152 c-66 -60 -200 -186 -250 -233 l-40 -39 -90 51 c-50 28
-119 66 -155 86 -36 20 -89 49 -118 65 -61 35 -61 40 1 -92 19 -41 53 -115 76
-165 23 -49 46 -98 51 -107 6 -10 10 -24 10 -31 0 -8 -48 -58 -107 -113 -59
-54 -135 -125 -168 -156 l-60 -58 34 0 c19 0 62 4 95 9 34 5 106 14 161 21 55
6 119 13 143 16 23 3 42 1 42 -4 0 -5 27 -68 61 -138 33 -71 77 -164 97 -208
l37 -78 45 233 46 234 40 6 c21 3 91 12 154 19 63 7 152 18 198 24 l82 11 -37
20 c-21 11 -63 34 -93 51 -70 40 -131 74 -195 109 -98 54 -94 50 -85 92 23 98
82 415 78 418 -2 2 -26 -17 -53 -43z"/>
<path d="M1662 14096 c-245 -133 -460 -383 -568 -663 -27 -70 -32 -87 -60
-213 -24 -109 -24 -357 0 -474 71 -347 258 -629 544 -823 82 -56 174 -104 252
-132 19 -7 44 -17 55 -21 42 -18 135 -39 259 -60 106 -18 304 -7 441 25 107
25 291 103 395 167 102 64 254 206 336 315 30 39 54 74 54 77 0 5 -16 0 -75
-25 -159 -66 -381 -97 -567 -79 -180 18 -338 63 -483 137 -64 34 -153 89 -165
102 -3 4 -23 19 -45 36 -132 98 -282 288 -358 455 -87 189 -117 329 -117 541
0 217 43 405 135 582 24 48 41 87 37 87 -4 0 -35 -16 -70 -34z"/>
<path d="M6784 13908 c-3 -13 -16 -43 -27 -67 l-20 -43 -76 6 -76 7 60 -54
c46 -42 57 -58 49 -68 -6 -8 -19 -34 -29 -59 -9 -25 -19 -51 -22 -58 -3 -6 25
6 61 28 75 46 70 46 146 -24 45 -42 45 -42 25 39 -8 33 -14 65 -15 70 0 6 30
28 68 50 l67 40 -72 6 c-39 4 -76 9 -81 13 -5 3 -15 35 -22 71 -13 68 -24 81
-36 43z"/>
<path d="M5200 13630 l0 -100 -145 0 -145 0 0 -110 0 -110 145 0 145 0 0 -100
0 -100 -200 0 -200 0 0 -110 0 -110 200 0 200 0 0 -495 0 -495 110 0 110 0 0
495 0 495 200 0 200 0 0 110 0 110 -200 0 -200 0 0 100 0 100 145 0 145 0 0
110 0 110 -145 0 -145 0 0 100 0 100 -110 0 -110 0 0 -100z"/>
<path d="M505 13222 l-7 -80 -42 -11 c-22 -5 -57 -13 -76 -17 l-35 -7 71 -33
71 -33 -4 -73 -4 -73 50 54 50 54 67 -27 c36 -15 68 -25 70 -23 2 2 -12 28
-31 58 -19 30 -35 59 -35 64 0 6 20 33 45 62 25 28 45 53 45 56 0 3 -16 1 -35
-4 -19 -5 -52 -13 -72 -19 -20 -5 -38 -8 -39 -7 0 1 -19 33 -42 70 l-41 68 -6
-79z"/>
<path d="M9500 12671 c0 -116 -1 -120 -22 -126 -67 -18 -98 -26 -151 -43 l-58
-18 98 -33 c54 -18 104 -36 112 -41 10 -5 13 -34 12 -126 -2 -116 -1 -118 16
-94 9 14 42 57 73 96 46 58 60 69 76 63 68 -27 189 -68 191 -65 2 2 -26 46
-62 99 -36 52 -62 97 -58 99 12 5 136 169 131 173 -2 2 -42 -8 -88 -22 -142
-43 -126 -47 -199 61 -36 53 -66 96 -68 96 -2 0 -3 -54 -3 -119z"/>
<path d="M6686 12563 c-4 -32 -11 -99 -17 -149 l-11 -91 -144 -28 c-80 -16
-147 -31 -149 -35 -2 -4 27 -21 65 -39 39 -17 101 -45 140 -63 59 -26 69 -34
65 -52 -8 -34 -34 -280 -31 -284 2 -1 48 46 102 107 55 60 104 110 111 110 6
1 44 -14 85 -33 141 -65 190 -87 193 -84 3 3 -37 76 -119 222 l-28 48 44 47
c127 131 166 176 159 179 -8 3 -245 -42 -283 -54 -11 -3 -21 5 -31 23 -57 109
-130 233 -136 233 -5 0 -12 -26 -15 -57z"/>
<path d="M8206 12379 c-3 -13 -7 -49 -8 -79 l-3 -55 -72 -14 c-40 -8 -73 -17
-73 -20 0 -3 28 -17 63 -31 l62 -25 0 -82 0 -82 26 32 c15 18 37 44 50 59 l24
27 69 -29 c38 -16 71 -28 73 -27 1 2 -15 32 -37 67 l-40 64 23 26 c12 14 35
40 51 58 34 36 29 38 -59 17 -33 -8 -63 -11 -67 -7 -4 4 -23 33 -42 66 -31 52
-36 56 -40 35z"/>
<path d="M7504 11477 c-10 -12 -39 -47 -64 -77 -25 -30 -47 -57 -50 -60 -3 -3
-21 -25 -40 -50 -19 -25 -37 -47 -40 -50 -3 -3 -44 -52 -90 -110 -47 -58 -89
-110 -95 -116 -5 -6 -28 -34 -50 -62 -22 -28 -44 -51 -50 -52 -5 0 -90 31
-187 70 -98 38 -259 102 -358 141 -100 39 -183 70 -185 67 -2 -2 25 -48 60
-103 150 -233 234 -364 297 -460 63 -98 65 -104 50 -122 -10 -10 -55 -65 -102
-123 -47 -58 -87 -107 -90 -110 -3 -3 -44 -52 -90 -110 -47 -57 -95 -116 -107
-130 -43 -50 -92 -114 -89 -118 2 -1 47 9 100 23 53 14 140 37 194 51 53 14
131 34 172 45 62 17 156 42 275 73 17 5 32 -13 90 -105 39 -61 108 -170 155
-242 47 -73 113 -175 145 -227 48 -77 60 -90 62 -70 1 14 7 120 13 235 17 337
31 530 38 537 4 3 50 18 102 32 52 13 138 36 190 50 117 31 312 82 405 106 80
20 85 14 -55 67 -36 13 -135 52 -220 85 -85 33 -207 80 -270 105 -63 24 -119
48 -123 52 -4 4 -3 93 3 197 24 430 31 577 27 580 -2 2 -12 -6 -23 -19z"/>
<path d="M9245 11375 c-49 -66 -75 -93 -85 -89 -8 3 -51 19 -95 34 -44 16 -88
32 -99 36 -11 4 6 -28 48 -88 36 -53 66 -100 66 -105 0 -5 -8 -18 -18 -29 -10
-10 -29 -35 -42 -54 -13 -19 -30 -41 -37 -48 -7 -8 -18 -23 -24 -34 -10 -18
-9 -20 7 -15 11 3 57 17 104 31 47 14 90 26 95 26 6 0 37 -41 70 -90 38 -57
62 -85 67 -77 4 7 8 58 8 114 l0 102 58 16 c31 9 81 24 111 34 l54 17 -29 11
c-16 7 -65 24 -108 40 l-80 28 3 118 c1 64 1 117 -1 117 -2 0 -35 -43 -73 -95z"/>
<path d="M1740 11408 c0 -24 -3 -59 -6 -80 -6 -36 -7 -36 -80 -54 -41 -9 -74
-18 -74 -19 0 -1 32 -14 71 -30 l71 -27 -7 -82 -8 -81 52 62 53 61 65 -30 c36
-16 67 -27 70 -24 3 2 -12 32 -32 65 l-38 61 53 61 c57 65 55 66 -34 38 -59
-19 -70 -13 -111 56 -21 36 -39 65 -41 65 -2 0 -4 -19 -4 -42z"/>
<path d="M4918 11309 c-9 -46 -22 -116 -29 -155 l-13 -71 -80 -11 c-45 -7
-108 -15 -141 -18 -33 -4 -66 -10 -73 -13 -9 -5 32 -32 110 -75 68 -38 127
-72 132 -77 6 -5 -2 -64 -18 -148 -15 -78 -26 -145 -24 -150 3 -9 45 28 180
157 46 44 47 45 72 29 24 -16 41 -26 161 -92 28 -15 56 -32 63 -37 27 -23 21
3 -26 103 -27 57 -55 120 -62 140 l-13 36 69 65 c38 35 89 84 114 107 l45 43
-50 -7 c-27 -3 -88 -10 -135 -15 -47 -6 -95 -12 -107 -15 -20 -5 -27 4 -54 65
-18 38 -49 105 -69 147 l-36 77 -16 -85z"/>
<path d="M3037 11210 c-8 -19 -33 -73 -55 -120 -22 -47 -56 -120 -76 -162 -20
-43 -52 -112 -71 -154 l-36 -76 -34 6 c-32 6 -68 11 -285 37 -47 5 -129 16
-184 22 l-98 13 59 -55 c146 -139 321 -301 351 -326 17 -15 32 -30 32 -35 0
-4 -26 -63 -59 -131 -32 -68 -66 -142 -76 -164 -10 -22 -40 -85 -66 -140 -27
-54 -46 -101 -44 -103 2 -2 48 21 102 51 54 30 130 71 168 92 39 21 75 41 80
45 22 16 164 90 172 90 4 0 31 -22 58 -48 28 -26 107 -99 175 -162 68 -63 142
-132 164 -152 22 -21 42 -35 44 -33 2 2 -1 28 -7 57 -6 29 -16 76 -21 103 -6
28 -23 118 -40 200 -16 83 -30 167 -32 188 -3 42 -8 38 127 112 311 171 375
209 368 215 -4 5 -53 13 -108 19 -55 7 -131 16 -170 20 -38 5 -115 14 -170 21
-132 15 -132 14 -139 58 -26 146 -98 511 -105 527 -8 18 -10 17 -24 -15z"/>
<path d="M985 10428 c-15 -40 -32 -77 -36 -82 -5 -6 -9 -19 -9 -30 0 -18 -5
-19 -122 -12 -105 6 -121 5 -108 -7 8 -7 44 -38 80 -68 36 -30 68 -58 72 -64
9 -12 3 -33 -27 -100 -39 -85 -54 -125 -49 -125 3 0 18 8 32 19 46 31 164 101
172 101 5 0 10 -3 12 -8 2 -4 32 -32 68 -62 36 -30 67 -58 68 -62 9 -21 24 -5
18 20 -3 15 -14 64 -25 109 l-19 82 94 57 c51 31 91 60 89 64 -3 5 -52 11
-110 15 l-104 7 -10 32 c-5 17 -18 66 -28 109 -9 42 -20 77 -23 77 -4 0 -19
-33 -35 -72z"/>
<path d="M5160 9959 c0 -2 9 -33 20 -69 11 -36 20 -69 20 -75 0 -5 -28 -28
-62 -50 l-63 -40 77 -3 76 -3 15 -47 c8 -26 18 -60 21 -76 9 -36 12 -32 40 45
l23 64 77 3 c85 3 85 2 5 62 l-47 35 24 64 c14 36 23 68 22 73 -2 5 -28 -9
-57 -32 -30 -22 -58 -40 -62 -40 -6 0 -62 39 -116 83 -7 5 -13 8 -13 6z"/>
<path d="M1710 9230 l0 -100 -145 0 -145 0 0 -110 0 -110 145 0 145 0 0 -105
0 -105 -205 0 -205 0 0 -110 0 -110 205 0 205 0 0 -490 0 -490 110 0 110 0 0
490 0 490 200 0 200 0 0 110 0 110 -200 0 -200 0 0 105 0 105 145 0 145 0 0
110 0 110 -145 0 -145 0 0 100 0 100 -110 0 -110 0 0 -100z"/>
<path d="M6220 9031 c0 -116 -1 -120 -22 -126 -67 -18 -98 -26 -151 -43 l-58
-18 98 -33 c54 -18 104 -36 112 -41 10 -5 13 -34 12 -126 -2 -116 -1 -118 16
-94 9 14 42 57 73 96 46 58 60 69 76 63 68 -27 189 -68 191 -65 2 2 -26 46
-62 99 -36 52 -62 97 -58 99 12 5 136 169 131 173 -2 2 -42 -8 -88 -22 -142
-43 -126 -47 -199 61 -36 53 -66 96 -68 96 -2 0 -3 -54 -3 -119z"/>
<path d="M4480 9028 c0 -2 11 -48 25 -103 46 -180 51 -374 14 -565 -21 -110
-22 -114 -64 -223 -39 -101 -118 -243 -170 -304 -75 -89 -119 -137 -168 -178
-32 -28 -63 -55 -70 -61 -72 -62 -234 -149 -360 -193 -155 -54 -235 -66 -422
-65 -180 0 -250 11 -402 59 -85 26 -245 105 -319 155 -25 18 -47 30 -50 28 -8
-8 86 -189 143 -276 70 -105 220 -258 324 -329 299 -205 673 -280 999 -202
107 26 190 54 260 86 68 32 188 99 200 112 3 3 21 17 40 31 36 25 85 68 149
130 169 166 302 425 346 677 18 102 20 285 4 397 -9 71 -47 221 -68 271 -66
163 -169 324 -280 438 -52 54 -131 123 -131 115z"/>
<path d="M9016 9022 c-2 -4 -12 -52 -21 -107 -9 -55 -18 -101 -19 -102 -1 -1
-40 -7 -86 -13 -157 -19 -157 -19 -49 -74 52 -27 98 -52 103 -56 5 -5 2 -46
-8 -98 -27 -149 -28 -148 67 -55 l82 82 103 -54 c56 -30 102 -52 102 -50 0 3
-23 51 -50 106 l-51 100 86 84 85 84 -38 -5 c-20 -3 -61 -10 -91 -15 -107 -18
-103 -20 -156 86 -26 52 -48 95 -50 95 -2 0 -6 -3 -9 -8z"/>
<path d="M3495 8712 l-71 -137 -34 3 c-33 3 -192 26 -255 38 -26 5 -16 -8 84
-109 l113 -115 -71 -141 -71 -141 140 70 c77 38 142 70 145 70 3 0 52 -48 111
-106 58 -58 107 -104 109 -102 3 2 -4 53 -14 113 -11 61 -22 128 -25 150 l-6
40 141 72 c113 57 137 73 118 77 -13 3 -82 14 -153 26 -71 11 -131 22 -134 24
-2 2 -12 60 -23 128 -33 201 -24 198 -104 40z"/>
<path d="M7650 8580 l0 -100 -145 0 -145 0 0 -110 0 -110 145 0 145 0 0 -105
0 -105 -205 0 -205 0 0 -110 0 -110 205 0 205 0 0 -495 0 -495 110 0 110 0 0
495 0 495 200 0 200 0 0 110 0 110 -200 0 -200 0 0 105 0 105 145 0 145 0 0
110 0 110 -145 0 -145 0 0 100 0 100 -110 0 -110 0 0 -100z"/>
<path d="M586 8375 c-22 -30 -46 -55 -55 -55 -9 0 -41 9 -70 20 -30 11 -57 18
-59 16 -2 -3 14 -31 36 -63 l40 -59 -44 -59 c-24 -32 -44 -60 -44 -61 0 -1 30
6 67 17 38 10 71 19 74 19 4 0 24 -26 45 -57 21 -31 39 -52 41 -46 2 6 7 39
11 74 l7 63 75 22 75 21 -65 22 c-97 32 -94 28 -87 110 3 39 3 71 -1 71 -4 -1
-25 -25 -46 -55z"/>
<path d="M436 7117 l-68 -94 -112 38 c-61 21 -112 39 -114 39 -4 0 60 -94 68
-100 3 -3 20 -25 37 -50 28 -41 30 -48 17 -65 -18 -24 -41 -55 -88 -117 -20
-27 -30 -48 -23 -48 6 0 52 14 102 30 49 17 95 30 102 30 7 0 41 -40 75 -89
l63 -90 3 114 3 113 82 25 c45 14 94 29 110 32 15 4 27 11 27 15 0 4 -46 23
-102 41 l-103 34 -5 118 -5 119 -69 -95z"/>
<path d="M5050 6820 c-13 -57 -30 -109 -38 -116 -7 -8 -36 -14 -65 -15 -29 -1
-77 -4 -107 -7 l-55 -7 50 -31 c28 -17 71 -44 97 -60 27 -16 48 -33 48 -37 0
-5 -11 -54 -25 -109 -14 -55 -24 -102 -22 -105 3 -2 11 2 18 9 8 7 39 33 69
58 30 25 61 51 68 57 7 7 16 13 18 13 5 0 132 -75 182 -108 l23 -15 -19 49
c-11 27 -31 77 -45 111 l-25 63 91 76 92 76 -120 -6 -120 -7 -23 58 c-13 32
-34 80 -46 107 l-22 48 -24 -102z"/>
<path d="M6044 6650 c9 -120 19 -530 14 -530 -5 0 -136 -46 -373 -132 -181
-65 -181 -65 -165 -72 13 -5 178 -54 360 -106 152 -43 185 -54 192 -64 4 -6 8
-90 9 -186 1 -96 4 -226 8 -287 l6 -113 45 68 c24 37 47 69 50 72 4 3 210 308
234 347 4 5 548 -151 566 -162 5 -3 10 -2 10 4 0 5 -3 11 -7 13 -5 2 -37 41
-73 88 -36 47 -70 92 -77 100 -53 65 -203 262 -203 266 0 5 139 213 261 389
31 44 59 85 62 92 8 13 -10 9 -103 -25 -87 -32 -277 -101 -369 -133 -73 -26
-86 -28 -93 -15 -5 8 -14 21 -21 28 -6 7 -41 51 -77 98 -35 47 -67 87 -70 90
-3 3 -34 43 -70 90 -36 47 -70 92 -77 100 -7 8 -20 24 -28 35 -15 19 -16 15
-11 -55z"/>
<path d="M2106 6645 c-22 -30 -45 -55 -51 -55 -7 0 -42 11 -79 24 -67 25 -69
23 -32 -29 60 -83 59 -76 11 -136 -25 -30 -44 -57 -45 -61 0 -3 28 2 63 13 34
10 68 19 74 19 7 0 29 -25 49 -55 21 -30 38 -54 39 -53 5 5 14 82 15 116 0 17
5 32 11 32 24 0 119 32 119 40 0 5 -10 12 -22 15 -13 4 -43 14 -67 23 l-44 16
6 73 c3 40 2 73 -1 73 -4 0 -25 -25 -46 -55z"/>
<path d="M9033 6598 l-41 -103 -118 4 -119 4 88 -73 c48 -40 87 -76 87 -79 0
-10 -41 -124 -52 -145 -6 -10 -14 -31 -18 -47 l-8 -28 56 36 c32 20 77 50 101
66 24 16 46 26 50 21 3 -5 31 -29 61 -54 30 -25 66 -55 80 -67 13 -12 26 -21
27 -19 2 2 -8 52 -23 111 l-27 108 24 20 c13 11 47 32 74 48 28 16 61 37 74
48 24 18 24 18 -92 26 l-117 7 -10 36 c-28 103 -51 182 -54 182 -1 0 -21 -46
-43 -102z"/>
<path d="M1020 6071 c0 -116 -1 -120 -22 -126 -67 -18 -98 -26 -151 -43 l-58
-18 98 -33 c54 -18 104 -36 112 -41 10 -5 13 -34 12 -126 -2 -116 -1 -118 16
-94 9 14 42 57 73 96 46 58 60 69 76 63 68 -27 189 -68 191 -65 2 2 -26 46
-62 99 -36 52 -62 97 -58 99 12 5 136 169 131 173 -2 2 -42 -8 -88 -22 -142
-43 -126 -47 -199 61 -36 53 -66 96 -68 96 -2 0 -3 -54 -3 -119z"/>
<path d="M3140 5146 l-24 -76 -80 0 -80 0 43 -32 c24 -18 53 -40 65 -49 l21
-17 -23 -67 c-13 -37 -22 -69 -19 -71 2 -3 31 15 64 40 l60 44 32 -27 c17 -15
44 -35 61 -44 l29 -17 -9 27 c-4 16 -15 49 -23 74 l-14 46 28 17 c16 9 34 22
41 29 7 7 24 21 38 30 24 17 23 17 -57 17 l-81 0 -24 76 -24 77 -24 -77z"/>
<path d="M4977 4983 c-25 -60 -52 -125 -61 -147 -13 -32 -20 -37 -38 -33 -13
3 -72 9 -133 12 -60 3 -121 8 -135 11 -25 4 -25 4 6 -23 16 -16 57 -50 89 -78
33 -27 74 -63 92 -80 l32 -30 -43 -100 c-23 -55 -50 -119 -59 -143 l-17 -43
32 17 c18 9 58 33 88 54 30 20 76 49 103 64 l47 27 58 -48 c31 -26 59 -50 62
-53 3 -3 32 -28 64 -55 53 -44 59 -47 53 -25 -21 77 -68 283 -65 285 7 7 156
103 201 128 26 15 47 32 47 37 0 6 -17 10 -37 11 -63 0 -254 16 -259 21 -2 3
-20 70 -40 149 -20 79 -37 145 -39 147 -1 1 -23 -46 -48 -105z"/>
<path d="M584 4988 c-3 -13 -16 -43 -27 -67 l-20 -43 -76 6 -76 7 60 -54 c46
-42 57 -58 49 -68 -6 -8 -19 -34 -29 -59 -9 -25 -19 -51 -22 -58 -3 -6 25 6
61 28 75 46 70 46 146 -24 45 -42 45 -42 25 39 -8 33 -14 65 -15 70 0 6 30 28
68 50 l67 40 -72 6 c-39 4 -76 9 -81 13 -5 3 -15 35 -22 71 -13 68 -24 81 -36
43z"/>
<path d="M1371 4873 c9 -78 23 -217 40 -383 6 -63 15 -144 19 -180 6 -45 4
-68 -4 -76 -6 -5 -47 -25 -91 -44 -44 -18 -114 -49 -155 -68 -41 -19 -95 -42
-120 -52 -25 -10 -79 -33 -120 -52 -41 -19 -95 -43 -119 -53 l-44 -20 34 -7
c19 -4 77 -17 129 -28 52 -11 156 -34 230 -50 74 -16 171 -37 215 -46 44 -9
83 -19 87 -23 7 -6 19 -96 38 -286 6 -60 15 -148 20 -195 5 -47 12 -118 16
-159 l6 -74 18 29 c9 16 50 85 90 154 40 69 94 161 120 205 26 44 58 100 72
125 57 101 63 110 78 105 16 -5 265 -60 345 -77 28 -5 66 -14 85 -18 142 -31
242 -51 245 -48 2 2 -10 19 -28 38 -18 19 -70 78 -117 130 -47 52 -87 97 -90
100 -3 3 -39 43 -80 90 -41 47 -92 103 -112 125 -21 22 -38 43 -38 47 0 3 23
43 50 88 28 45 50 83 50 85 0 3 28 51 62 107 33 57 74 126 89 154 16 28 46 80
68 115 21 35 38 65 36 67 -1 2 -27 -8 -56 -21 -30 -14 -128 -57 -219 -97 -215
-95 -245 -108 -308 -136 -67 -30 -76 -30 -102 4 -12 15 -36 43 -53 62 -18 19
-70 78 -117 130 -47 52 -87 97 -90 100 -3 3 -39 43 -80 90 -89 101 -97 110
-102 110 -3 0 -1 -30 3 -67z"/>
<path d="M8674 4543 c-94 -112 -111 -132 -181 -212 l-30 -34 -84 36 c-46 19
-146 60 -222 90 -132 53 -136 54 -118 29 10 -15 51 -81 91 -147 41 -66 88
-144 107 -174 37 -62 38 -64 21 -83 -7 -7 -38 -42 -68 -78 -30 -36 -57 -67
-60 -70 -3 -3 -25 -30 -50 -60 -25 -30 -59 -71 -77 -90 -18 -19 -33 -38 -33
-41 0 -3 102 20 228 52 226 57 227 58 242 37 19 -26 116 -179 182 -290 64
-105 61 -109 77 134 17 249 16 246 60 257 20 5 123 31 228 57 106 26 192 48
190 50 -3 3 -237 99 -346 142 l-93 37 6 67 c3 37 11 136 16 220 6 84 12 161
14 171 2 9 3 17 1 17 -1 0 -47 -53 -101 -117z"/>
<path d="M7000 4399 c0 -2 9 -33 20 -69 11 -36 20 -69 20 -75 0 -5 -28 -28
-62 -50 l-63 -40 77 -3 76 -3 15 -47 c8 -26 18 -60 21 -76 9 -36 12 -32 40 45
l23 64 77 3 c85 3 85 2 5 62 l-47 35 24 64 c14 36 23 68 22 73 -2 5 -28 -9
-57 -32 -30 -22 -58 -40 -62 -40 -6 0 -62 39 -116 83 -7 5 -13 8 -13 6z"/>
<path d="M4833 3758 l-41 -103 -118 4 -119 4 88 -73 c48 -40 87 -76 87 -79 0
-10 -41 -124 -52 -145 -6 -10 -14 -31 -18 -47 l-8 -28 56 36 c32 20 77 50 101
66 24 16 46 26 50 21 3 -5 31 -29 61 -54 30 -25 66 -55 80 -67 13 -12 26 -21
27 -19 2 2 -8 52 -23 111 l-27 108 24 20 c13 11 47 32 74 48 28 16 61 37 74
48 24 18 24 18 -92 26 l-117 7 -10 36 c-28 103 -51 182 -54 182 -1 0 -21 -46
-43 -102z"/>
<path d="M3490 3550 l0 -100 -145 0 -145 0 0 -110 0 -110 145 0 145 0 0 -100
0 -100 -205 0 -205 0 0 -110 0 -110 205 0 205 0 0 -495 0 -495 110 0 110 0 0
495 0 495 200 0 200 0 0 110 0 110 -200 0 -200 0 0 100 0 100 145 0 145 0 0
110 0 110 -145 0 -145 0 0 100 0 100 -110 0 -110 0 0 -100z"/>
<path d="M6856 3427 c-10 -18 -41 -75 -68 -127 -67 -125 -65 -123 -119 -111
-24 5 -84 17 -134 26 -49 9 -99 19 -110 22 -11 3 31 -48 92 -113 l111 -119
-35 -65 c-89 -162 -114 -210 -109 -210 2 0 67 30 142 67 l137 67 110 -114 110
-115 -6 50 c-13 111 -27 212 -33 237 -4 23 -1 30 18 37 13 5 78 36 146 69
l123 60 -38 6 c-177 31 -269 51 -275 60 -4 6 -10 40 -14 76 -3 36 -11 102 -18
147 l-11 82 -19 -32z"/>
<path d="M5660 3377 c0 -1 -11 -47 -25 -102 -82 -321 -73 -706 25 -1073 65
-241 153 -436 299 -657 14 -22 28 -42 31 -45 3 -3 17 -21 30 -40 13 -19 27
-37 30 -40 3 -3 30 -34 60 -70 212 -252 521 -457 845 -562 233 -75 357 -93
630 -93 246 1 337 13 530 70 322 95 606 262 831 489 126 127 177 190 302 377
168 251 253 455 303 729 16 84 16 408 0 483 -11 52 -31 79 -31 41 0 -21 -86
-190 -148 -290 -185 -302 -380 -493 -675 -663 -391 -225 -874 -303 -1352 -220
-234 41 -549 158 -702 261 -23 15 -46 28 -51 28 -6 0 -12 3 -14 8 -1 4 -25 22
-53 41 -368 254 -637 647 -810 1184 -39 122 -55 164 -55 144z"/>
<path d="M296 2128 c4 -18 14 -70 24 -116 l17 -83 -41 -23 c-23 -13 -70 -39
-104 -58 l-64 -35 44 -6 c23 -4 76 -9 116 -13 40 -4 75 -10 77 -14 3 -4 14
-54 25 -111 11 -56 22 -104 24 -106 3 -3 44 80 81 164 15 34 23 42 39 38 12
-2 52 -6 89 -10 37 -3 82 -8 100 -12 l32 -6 -40 38 c-22 20 -61 57 -87 81 -51
47 -54 54 -38 82 12 21 80 172 80 177 0 3 -26 -11 -57 -29 -150 -86 -146 -85
-168 -63 -11 10 -50 46 -87 79 l-68 60 6 -34z"/>
<path d="M2606 2139 c-3 -13 -7 -49 -8 -79 l-3 -55 -72 -14 c-40 -8 -73 -17
-73 -20 0 -3 28 -17 63 -31 l62 -25 0 -82 0 -82 26 32 c15 18 37 44 50 59 l24
27 69 -29 c38 -16 71 -28 73 -27 1 2 -15 32 -37 67 l-40 64 23 26 c12 14 35
40 51 58 34 36 29 38 -59 17 -33 -8 -63 -11 -67 -7 -4 4 -23 33 -42 66 -31 52
-36 56 -40 35z"/>
<path d="M4780 1843 c4 -16 15 -48 23 -72 18 -51 19 -49 -63 -104 l-55 -37 82
0 82 0 16 -57 c28 -103 29 -104 56 -20 l24 77 78 0 79 0 -61 46 c-34 25 -61
48 -61 51 0 3 11 37 25 75 27 75 28 75 -53 15 l-52 -39 -53 39 c-75 57 -77 58
-67 26z"/>
</g>
</svg>
